<svg width="20" height="22" viewBox="0 0 20 22" fill="none" xmlns="http://www.w3.org/2000/svg">
<path fill-rule="evenodd" clip-rule="evenodd" d="M19.1665 8.90967H1.3425C0.928499 8.90967 0.592499 8.57367 0.592499 8.15967C0.592499 7.74567 0.928499 7.40967 1.3425 7.40967H19.1665C19.5805 7.40967 19.9165 7.74567 19.9165 8.15967C19.9165 8.57367 19.5805 8.90967 19.1665 8.90967Z" fill="#3A00E5"/>
<path fill-rule="evenodd" clip-rule="evenodd" d="M14.7012 12.8149C14.2872 12.8149 13.9472 12.4789 13.9472 12.0649C13.9472 11.6509 14.2782 11.3149 14.6922 11.3149H14.7012C15.1152 11.3149 15.4512 11.6509 15.4512 12.0649C15.4512 12.4789 15.1152 12.8149 14.7012 12.8149Z" fill="#3A00E5"/>
<path fill-rule="evenodd" clip-rule="evenodd" d="M10.2637 12.8149C9.8497 12.8149 9.5097 12.4789 9.5097 12.0649C9.5097 11.6509 9.8407 11.3149 10.2547 11.3149H10.2637C10.6777 11.3149 11.0137 11.6509 11.0137 12.0649C11.0137 12.4789 10.6777 12.8149 10.2637 12.8149Z" fill="#3A00E5"/>
<path fill-rule="evenodd" clip-rule="evenodd" d="M5.8169 12.8149C5.4029 12.8149 5.0619 12.4789 5.0619 12.0649C5.0619 11.6509 5.3939 11.3149 5.8079 11.3149H5.8169C6.2309 11.3149 6.5669 11.6509 6.5669 12.0649C6.5669 12.4789 6.2309 12.8149 5.8169 12.8149Z" fill="#3A00E5"/>
<path fill-rule="evenodd" clip-rule="evenodd" d="M14.7012 16.7017C14.2872 16.7017 13.9472 16.3657 13.9472 15.9517C13.9472 15.5377 14.2782 15.2017 14.6922 15.2017H14.7012C15.1152 15.2017 15.4512 15.5377 15.4512 15.9517C15.4512 16.3657 15.1152 16.7017 14.7012 16.7017Z" fill="#3A00E5"/>
<path fill-rule="evenodd" clip-rule="evenodd" d="M10.2637 16.7017C9.8497 16.7017 9.5097 16.3657 9.5097 15.9517C9.5097 15.5377 9.8407 15.2017 10.2547 15.2017H10.2637C10.6777 15.2017 11.0137 15.5377 11.0137 15.9517C11.0137 16.3657 10.6777 16.7017 10.2637 16.7017Z" fill="#3A00E5"/>
<path fill-rule="evenodd" clip-rule="evenodd" d="M5.8169 16.7017C5.4029 16.7017 5.0619 16.3657 5.0619 15.9517C5.0619 15.5377 5.3939 15.2017 5.8079 15.2017H5.8169C6.2309 15.2017 6.5669 15.5377 6.5669 15.9517C6.5669 16.3657 6.2309 16.7017 5.8169 16.7017Z" fill="#3A00E5"/>
<path fill-rule="evenodd" clip-rule="evenodd" d="M14.2935 4.79637C13.8795 4.79637 13.5435 4.46037 13.5435 4.04637V0.755371C13.5435 0.341371 13.8795 0.00537109 14.2935 0.00537109C14.7075 0.00537109 15.0435 0.341371 15.0435 0.755371V4.04637C15.0435 4.46037 14.7075 4.79637 14.2935 4.79637Z" fill="#3A00E5"/>
<path fill-rule="evenodd" clip-rule="evenodd" d="M6.2153 4.79637C5.8013 4.79637 5.4653 4.46037 5.4653 4.04637V0.755371C5.4653 0.341371 5.8013 0.00537109 6.2153 0.00537109C6.6293 0.00537109 6.9653 0.341371 6.9653 0.755371V4.04637C6.9653 4.46037 6.6293 4.79637 6.2153 4.79637Z" fill="#3A00E5"/>
<mask id="mask0_59_360" style="mask-type:luminance" maskUnits="userSpaceOnUse" x="0" y="1" width="20" height="21">
<path fill-rule="evenodd" clip-rule="evenodd" d="M0.5 1.58447H20V21.5054H0.5V1.58447Z" fill="white"/>
</mask>
<g mask="url(#mask0_59_360)">
<path fill-rule="evenodd" clip-rule="evenodd" d="M6.021 3.08447C3.428 3.08447 2 4.46747 2 6.97847V16.0275C2 18.5935 3.428 20.0055 6.021 20.0055H14.479C17.072 20.0055 18.5 18.6195 18.5 16.1035V6.97847C18.504 5.74347 18.172 4.78347 17.513 4.12347C16.835 3.44347 15.79 3.08447 14.488 3.08447H6.021ZM14.479 21.5055H6.021C2.616 21.5055 0.5 19.4065 0.5 16.0275V6.97847C0.5 3.65047 2.616 1.58447 6.021 1.58447H14.488C16.197 1.58447 17.61 2.09647 18.575 3.06347C19.512 4.00447 20.005 5.35747 20 6.98047V16.1035C20 19.4355 17.884 21.5055 14.479 21.5055Z" fill="#3A00E5"/>
</g>
</svg>
