<svg width="22" height="24" viewBox="0 0 22 24" fill="none" xmlns="http://www.w3.org/2000/svg">
<path fill-rule="evenodd" clip-rule="evenodd" d="M3.52498 19.499C2.49879 19.9841 2.05863 21.2137 2.54378 22.2399C3.02894 23.2661 4.25851 23.7062 5.2847 23.2211C6.31089 22.7359 6.75105 21.5064 6.26589 20.4802C5.78074 19.454 4.55116 19.0138 3.52498 19.499Z" fill="#3A00E5"/>
<path fill-rule="evenodd" clip-rule="evenodd" d="M18.6341 12.3557C17.6079 12.8409 17.1677 14.0705 17.6529 15.0966C18.1381 16.1228 19.3676 16.563 20.3938 16.0778C21.42 15.5927 21.8602 14.3631 21.375 13.3369C20.8899 12.3107 19.6603 11.8706 18.6341 12.3557Z" fill="#3A00E5"/>
<path fill-rule="evenodd" clip-rule="evenodd" d="M4.01358 0.981707C2.98739 1.46686 2.54723 2.69644 3.03238 3.72262C3.51754 4.74881 4.74712 5.18897 5.7733 4.70382C6.79949 4.21866 7.23965 2.98909 6.75449 1.9629C6.26934 0.936714 5.03976 0.496551 4.01358 0.981707Z" fill="#3A00E5"/>
<path d="M4.58621 21.5296L4.99833 2.81255L19.7247 14.3725L4.58621 21.5296Z" stroke="#3A00E5" stroke-width="1.5" stroke-linejoin="round"/>
</svg>
