<svg width="22" height="22" viewBox="0 0 22 22" fill="none" xmlns="http://www.w3.org/2000/svg">
<path fill-rule="evenodd" clip-rule="evenodd" d="M2.44208 16.9175C1.30699 16.9175 0.383514 17.841 0.383514 18.9761C0.383514 20.1112 1.30699 21.0347 2.44208 21.0347C3.57717 21.0347 4.50064 20.1112 4.50064 18.9761C4.50064 17.841 3.57717 16.9175 2.44208 16.9175Z" fill="#3A00E5"/>
<path fill-rule="evenodd" clip-rule="evenodd" d="M19.1547 16.9175C18.0196 16.9175 17.0961 17.841 17.0961 18.9761C17.0961 20.1112 18.0196 21.0347 19.1547 21.0347C20.2898 21.0347 21.2133 20.1112 21.2133 18.9761C21.2133 17.841 20.2898 16.9175 19.1547 16.9175Z" fill="#3A00E5"/>
<path fill-rule="evenodd" clip-rule="evenodd" d="M5.37955 0.385719C4.24446 0.385719 3.32098 1.30919 3.32098 2.44428C3.32098 3.57937 4.24446 4.50285 5.37955 4.50285C6.51464 4.50285 7.43811 3.57937 7.43811 2.44428C7.43811 1.30919 6.51464 0.385719 5.37955 0.385719Z" fill="#3A00E5"/>
<path fill-rule="evenodd" clip-rule="evenodd" d="M16.404 6.28287C15.2689 6.28287 14.3455 7.20634 14.3455 8.34143C14.3455 9.47653 15.2689 10.4 16.404 10.4C17.5391 10.4 18.4626 9.47653 18.4626 8.34143C18.4626 7.20634 17.5391 6.28287 16.404 6.28287Z" fill="#3A00E5"/>
<path d="M5.46149 2.47728L2.37836 19.2008L16.3925 7.89609L19.1954 19.2008" stroke="#3A00E5" stroke-width="1.5" stroke-linejoin="round"/>
</svg>
