<svg width="22" height="22" viewBox="0 0 22 22" fill="none" xmlns="http://www.w3.org/2000/svg">
<path fill-rule="evenodd" clip-rule="evenodd" d="M10.7798 2.50537C6.09282 2.50537 2.27982 6.31837 2.27982 11.0054C2.27982 15.6924 6.09282 19.5054 10.7798 19.5054C15.4668 19.5054 19.2798 15.6924 19.2798 11.0054C19.2798 6.31837 15.4668 2.50537 10.7798 2.50537ZM10.7798 21.0054C5.26582 21.0054 0.779816 16.5194 0.779816 11.0054C0.779816 5.49137 5.26582 1.00537 10.7798 1.00537C16.2938 1.00537 20.7798 5.49137 20.7798 11.0054C20.7798 16.5194 16.2938 21.0054 10.7798 21.0054Z" fill="#3A00E5"/>
<path fill-rule="evenodd" clip-rule="evenodd" d="M14.211 14.6978C14.08 14.6978 13.948 14.6638 13.827 14.5928L10.057 12.3438C9.83102 12.2078 9.69102 11.9628 9.69102 11.6988V6.85077C9.69102 6.43677 10.027 6.10077 10.441 6.10077C10.856 6.10077 11.191 6.43677 11.191 6.85077V11.2728L14.596 13.3028C14.951 13.5158 15.068 13.9758 14.856 14.3318C14.715 14.5668 14.466 14.6978 14.211 14.6978Z" fill="#3A00E5"/>
</svg>
